<?xml version="1.0" encoding="UTF-8"?>
<!-- Created with Inkscape (http://www.inkscape.org/) -->
<svg id="svg2" width="2061" height="1925" version="1.0" xmlns="http://www.w3.org/2000/svg" xmlns:cc="http://web.resource.org/cc/" xmlns:dc="http://purl.org/dc/elements/1.1/" xmlns:rdf="http://www.w3.org/1999/02/22-rdf-syntax-ns#">
 <metadata id="metadata2300">
  <rdf:RDF>
   <cc:Work rdf:about="">
    <dc:format>image/svg+xml</dc:format>
    <dc:type rdf:resource="http://purl.org/dc/dcmitype/StillImage"/>
   </cc:Work>
  </rdf:RDF>
 </metadata>
 <path id="pomorskie" d="m549.92 93.014l3.938 19.373 10.039 5.813 0.596 18.814 3.427 13-7-1 0.068 10-3.068 11 7 1c0 5.486 1.569 13.148-3.148 17.057-6.221 5.155-19.097 1.992-21.549 12.033-1.616 6.62 2.359 9.259 3.817 14.925 3.441 13.369 10.757 27.001 12.732 40.985 0.906 6.417-4.307 11.912-5.225 18-0.67 4.438 2.321 8.791 3.373 13 5.412-0.903 5.42-6.686 8-11h1c2.254 4.676 0.925 9.435 2.859 13.91 2.771 6.412 12.563 11.413 19.141 12.09 0.636 4.726 4.022 12.322 0.258 16.436-5.333 5.828-17.035-0.323-20.846 8.608-2.706 6.341 7.363 11.039 7.588 17.956h7c-2.026 7.761-11.524 11.607-12.879 19-1.724 9.41 10.753 22.846 4.879 32l10 32c2.548-0.447 6.625-2.629 9.018-1.084 3.116 2.011 1.021 5.983 3.013 8.484 4.704 5.906 12.959-0.945 14.969-5.4l39.42 3.295 21.58 10.705 4.671-14 1.507-12.985 9.822-14.015 8 1 1 11c6.247 0.79 10.123 1.732 14-4h1l9 10c5.568-1.837 2.332-5.851 1-10 5.282 0.227 9.826 2.17 13-3l8 5 8-11-10-2-2-17c5.601-0.261 9.75 4.015 15.004 3.056 13.281-2.424 20.672-14.282 5.996-21.056v-1l20-3c1.132 7.49 7.545 11.656 14 15l5-5 3-16c7.265 5.2 8.944 6.715 18 6l1 7 6-3 1 5h1l1-4h1l1 4c10.222-1.863 10.291 3.898 8 12l26 3.267 11 1.733 2-6h10l-1 6h3c0.737 5.026 2.857 7.594 8 8l-1-5c7.282 0 12.147 0.687 15-7h26l-5 28 28 2v5c12.779-5.719 30.02-4 44-4 0.1-8.778 7.14-15.712 16-16 1.17-14.818 2.92-24.863 17-33l2-26 21.79 5.854 8.21 8.146c-2.76-16.981 12.05-31.87 12-49h5v-6l-16-0.481-12.58 4.191-6.11-4.753 2.69-14.957c-5.02-1.866-12.95-10.217-17-4-4.42-2.562-7.27-4.795-3-9v-2c-3.61-1.439-9.1-2.612-11.25-6.198-1.76-2.938 1.38-5.812 1.44-8.841 0.19-8.412-1.8-19.125 3.55-26.853 2.59-3.733 9.66-3.809 10.78-8.252 1.3-5.138-3.94-9.068-4.52-13.856-5.68 0-7.61-21.013-8-25-0.3-3.075-4.76-5.849-1.83-8.833 4.54-4.639 16.85-1.506 22.83-3.5 16.25-5.416 30.95-14.557 46-22.5 5.34-2.821 14.18-7.051 16-13.167-6.97 0.239-12.99 7.385-19 10.688-13.95 7.667-29.74 16.013-45 20.59-23.14 6.942-51.02 9.174-75 6.892-5.835-0.555-12.322 0.886-18-0.743-5.179-1.485-7.945-6.711-13-8.355-4.758-1.548-9.288 0.088-13.999-2.489-4.485-2.454-5.937-7.682-10.145-10.01-6.832-3.781-11.186-2.808-15.723-10.573-6.516-11.154-2.476-27.742-4.346-40-1.443-9.4613-7.558-14.864-6.787-25h-1c-10.531 9.3921-6.575-15.552-8.643-18.985-3.154-5.2363-10.489-7.585-11.88-14.015-1.267-5.8552 3.362-10.719 1.523-17l15 8.5616 31.594 22.85 14.016 8.6312 16.39 23.957c-0.021-31.69-44.728-49.236-68-63.2-8.088-4.8534-16.077-16.356-25-18.406-13.034-2.9944-29.522 3.0461-43 2.9999-3.454-0.01185-6.56-1.8633-10-1.6704-25.583 1.4347-50.412 12.485-75 18.377-31.257 7.4909-62.606 11.21-92 25.219-18.46 8.7981-30.644 25.312-48 35.146-8.897 5.041-23.862 8.0416-34 9.5332z" fill="currentColor" stroke="#000" stroke-linejoin="round" stroke-width="2"/>
 <path id="zachodniopomorskie" d="m158.92 252.01c3.124 0.386 8.996-2.636 11.454-0.307 2.648 2.51-1.651 5.682-3.04 7.477-5.249 6.783-4.414 16.771-4.414 24.83-17.345-3.559-28.254 17.523-30.664 33-1.364 8.759 0.202 21.775-12.336 19-1.693 5.716-6.099 20.544-1 25-1.212 3.866-0.884 13.284 4 14l-2.238 9.408-11.091-17.028-25.461-11.94-15.21-17.44c-1.5676 7.094-1.2604 12.546-9 15 2.6796 11.126 5.1102 23.581 5.9105 35 0.4059 5.792-1.4257 12.412-0.0826 18 1.6431 6.836 7.06 12.105 8.6428 19 3.4394 14.983 3.1481 30.701 5.6744 46 1.3179 7.983 6.4559 17.772 4.4069 26-1.755 7.046-9.6685 10.755-11.763 18-2.2021 7.619 0.4301 15.368 7e-4 23-0.554 9.847-6.8234 19.303-12.551 27-5.064 6.805-12.015 13.082-19.239 17.533-4.6785 2.883-10.851 4.578-14.566 8.796-5.4157 6.147-1.0508 17.249-3.4259 24.671-1.3919 4.349-5.8551 8.243-5.7261 12.981 0.1513 5.551 14.465 10.306 18.201 15.02 9.1614 11.56 19.841 21.18 28.989 32.999 8.0156 10.355 10.785 18.801 21.528 27h1c7.76-9.325 11.531-7.638 22-5 7.732-13.293 14.78 9.59 25.683 0.991 3.565-2.812 11.387-15.448 12.103-19.991 0.762-4.827-0.823-10.285 1.108-14.906 2.357-5.644 9.833-5.849 12.874-11.137 1.924-3.347 0.706-19.208 8.232-14.957l4-4-5-2 3-9c7.562 3.103 12.851 8.057 17 15 2.886-3.916 5.047-5.549 10-6 0.741 9.791 8.257 6.71 15 4.308 12.916-4.601 26.156-10.395 38-17.308l-7-17 16 3c6.337-11.736 26.02-19.434 39-20 2.203 16.333 18.878 17.046 28 6h1c4.015 5.137 7.752 3.79 13 1v-2l-3-1c1.778-5.078 6.179-7.923 11-10l-4-8c9.389-0.033 16.967-9.668 17-19 7.499-0.021 20.708-1.578 26.08 5.303 7.707 9.872-11.629 27.683 9.92 23.697 1.329 6.145 7.408 6.705 13 7.153 11.219 0.899 23.371-9.114 34-12.153 1.584 3.94 4.014 3.953 8 4l-1-5c7.027-2.409 15.438-10.799 8-17v-1c3.368-3.223 3.917-5.756 2-10 4.947-1.814 5.51-5.064 5-10 5.576-1.201 10.539-3.379 15.87-4.608 2.614-0.603 5.364 1.079 7.831-0.438 3.299-2.028 2.578-6.701 4.449-9.655 3.167-5.004 8.776-4.682 13.85-4.299l1 5c5.989-1.99 2.389-8.133 4.514-12.911 2.589-5.821 10.46-9.652 16.486-10.089-12.86-20.28-51.208-13.627-48-44-3.184-3.565-1.007-8.731 4.005-9.633 3.178-0.571 5.809 2.287 8.995 2.279 6.043-0.016 21.613-2.088 26.999-4.659 7.806-3.727 15.249-11.657 17.252-19.987 1.165-4.845 0.258-9.511 2.793-13.999 4.001-7.085 11.006-6.196 14.956-12.001h2l2 4h1c2.974-4.556 4.66-6.542 10-8l-4.036-21-2.692-10.335 12.728-17.665h-7c-0.026-7.274-10.216-13.848-6.728-19.895 4.43-7.68 20.281-2.799 21.576-11.16 2.097-13.537-12.564-14.7-19.275-23.119-3.531-4.428-1.306-9.904-3.573-14.826-4.544 4.449-2.242 10.126-10 11-0.396-4.398-3.549-8.704-3.244-13 0.418-5.87 5.516-11.025 5.644-17 0.187-8.639-5.751-22.038-8.914-30.089-2.437-6.203-2.808-15.564-9.486-17.911 1.72-5.819 0.042-11.36 5.444-15.579 5.307-4.146 14.959-2.476 18.953-7.649 5.217-6.759 1.554-15.579-6.397-15.772l4-23 8 1-4.106-12-0.479-18.671-9.687-5.018-4.728-19.311c-13.187 0-26.872-0.6897-39 5.3705-19.176 9.5815-28.735 28.052-40.885 44.63-11.737 16.015-25.39 28.911-43.115 38.018-17.851 9.173-36.424 4.364-55 8.373-17.835 3.848-35.123 12.041-53 16.08-10.325 2.333-21.89 1.378-32 4.024-18.447 4.829-35.441 13.718-54 18.621-13.807 3.647-27.23 10.222-41 13.355-10.045 2.286-23.485 3.16-32 9.529z" fill="currentColor" stroke="#000" stroke-linejoin="round" stroke-width="2"/>
 <path id="podlaskie" d="m1705.9 142.01v1c4.15 4.448 6.95 8.148 2 13 4.25 15.053-16.44 18.414-27 16l-21.57 13.263-7.43 11.737v2c5.84 3.975 7.25 10.607 11.97 15.385 2.16 2.183 5.41 0.369 7.99 1.593 3.93 1.873 6.42 7.966 7.2 12.022 1 5.293-5.29 9.618-2.96 14.895 1.51 3.418 5.84 4.551 8.16 7.318 4.98 5.936 6.8 14.449 11.2 20.787 3.83 5.525 11.47 11.41 13.12 18 3.78 15.11-6.37 20.94-10.93 33.015-1.87 4.935 0.25 11.599-0.75 16.985-8.85-2.525-23.49 11.866-22 21l-8-2c-2.32 7.897-6.16 8.978-14 9l-2 17c-12.97-8.072-16.96 3.64-26.72 11.266-11.5 8.99-19.55 21.153-31.28 29.81-5.67 4.18-14.83 4.678-19.49 8.669-4.29 3.679-3.95 9.214-9.51 12.255-1.33-6.121-7.82-6.939-12.89-3.86-6.3 3.822-3.81 14.769-11.15 17.213-5.88 1.956-12.18-4.646-17.96-5.249-13.76-1.434-22.79 2.407-36 4.896 0.72 5.161 2.18 7.811 7 10-3.34 7.082 1.61 16.099 8 20-2.78 4.079-4.16 7.094-3 12l5-2 7 9h-20v6l7 3-5 8c1.6 5.772 6.71 9.435 8.84 15 1.69 4.432 4.81 10.459 5.7 15 1.39 7.166-0.63 17.614 10.46 19.592 4.42 0.788 10.68-1.527 15-2.592 2.11 4.717 7.73 17.431 14.09 17.369 3.09-0.03 6.26-3.943 8.91-5.369 0.61 4.425-2.18 9.261 3 11l-1 4-8-2c-1.17 4.714-4.56 8.917-0.68 13.266 4.99 5.6 23.07 4.07 17.68 14.734v1l6 9-6 4v1l4 13h5c-1.86 8.19 6.18 6.619 11 4 3.45 4.883 14.43 2.737 17.99-1.599 1.59-1.947 1.18-4.819 3.44-6.373 6.79-4.65 17.55 0.409 22.57 4.972l-4 2v1l7 3-6 4h-1l-6-1 8.01 17.487 8.99 7.513h1c2.52-3.833 4.33-5.645 9-6v-6l12.93 5.433-0.89 12.567-1.71 36.981 5.67 13.019c6.38 1.397 17.05 14.589 18.68 21.004 1.16 4.554-0.5 9.428 1.47 13.887 1.58 3.598 5.85 3.294 7.5 6.423 1.97 3.721-0.64 7.649 2.67 11.172 4.76 5.078 13.59 11.54 20.68 12.311 4.74 0.516 9.2-1.148 14-0.167 5.76 1.179 9.95 5.167 16 5.354 6.56 0.204 13.81-3.168 20-2.38 12.8 1.63 25.33 10.825 29 22.396 10.63-2.531 16.84-1.748 27 1 18.41-31.538 30.49-70.95 60.42-93.895 13.38-10.255 30.32-11.283 44.58-18.558 7.31-3.732 13.9-11.055 20-16.497 6.74-6.016 16.23-16.315 16.37-26.05 0.11-7.767 0.81-17.426-0.9-25-1.48-6.552-5.12-12.118-5.43-19-0.32-7.048-0.82-15.022 0.26-22 0.57-3.615 3.4-7.334 2.93-11-1.94-14.958-11.47-28.516-14.54-43-2.13-10.004 6.93-16.783 2.83-27.985-1.85-5.058-6.71-7.208-9.82-11.301-4-5.261-7.12-12.851-10.39-18.714-11.3-20.26-19.74-41.835-29.17-63-5.18-11.628-11.77-22.747-15.42-35-5.82-19.529-10.37-39.505-15.65-59-1.4-5.172-4.66-9.712-5.69-15-1.48-7.572 3.13-15.528 1.3-23-1.04-4.28-5.04-6.971-6.67-11-2.23-5.491-1.47-11.581-4.43-17-2.26-4.159-6.9-7.218-7.92-12-1.74-8.177 6.58-14.424 7.72-22 1.07-7.182-4.45-18.447-7.25-25-3.42-7.986-8.67-10.973-13.12-17.414-5.15-7.467-7.04-15.565-16.01-20.446-6.42-3.492-14.63-1.624-20.91-5.114-6.57-3.65-12.61-9.575-19.35-12.772-4.4-2.091-9.19 2.202-13.51-1-3.64-2.698-2.03-7.559-4.97-10.396-2.65-2.55-7.07-1.444-9.94-3.716-2.35-1.86-1.79-5.155-3.92-7.052-2.65-2.361-7.14-2.007-10.4-2.77-10.64-2.49-16.08-6.379-25 2.68z" fill="currentColor" stroke="#000" stroke-linejoin="round" stroke-width="2"/>
 <path id="warminsko-mazurskie" d="m1131.9 138.01l-11 10-20 22-19 2-16 14-14 22-3 2 8-20c-3.16 1.133-4.58 4.808-8.04 5.265-4.22 0.558-13.61-5.522-16.84-0.661-4.51 6.785 9.2 15.416 7.17 22.338-1.49 5.08-8.56 4.046-11.11 8.283-5.16 8.552-2.26 18.521-3.21 27.336-0.29 2.682-3.47 5.215-1.88 7.949 2.28 3.941 9.42 5.504 12.91 8.49-1.96 1.039-6.19 4.735-1.9 6.268 5.33 1.901 16.58-0.415 19.48 7.956 1.84 5.318-6.54 13.664 1.48 17.214 4.65 2.059 10.44-2.575 14.94-3.673 5.32-1.3 11.52 0.234 17 0.235l1 9-6-1c0.02 9.051-3.14 17.688-6.82 26-1.74 3.938-5.91 6.813-3.18 11v1c-3.11 3.328-3.07 6.05-1 10-5.73-0.55-6.12-4.921-10.39-7.697-3.31-2.152-17.42-7.451-20.43-3.696-1.9 2.372-2.62 11.225-3.04 14.393-0.44 3.384 0.08 6.722 0.86 10-15.63 3.716-16.73 19.809-17 33-6.88 0.024-20.25 5.62-14.97 14.867 3.88 6.795 10.74 4.469 10.97 14.133 7.49 3.966-0.07 8.184 1.12 14 1.37 6.71 6.69 8.277 4.88 16 9.37 7.422-0.16 16.736 14 22 0.68-8.965 7.26-5.543 14-6 0.33 7.503 1.73 13.247 10 14l-1 6 5-4 2 3c6.74-0.207 9.8 4.755 10 11l9 1c4.16-5.117 15.23-7.596 20.14-1.567 5.07 6.23 4.59 17.027 12.86 21.567l-1 3c-8.2-1.042-8 5.668-8 12 15.52 1.366 6.95 13.764 12.65 23.721 2.4 4.194 10.98 5.268 15.35 6.279l0.73-12.984 11.27-12.016c7.31 7.763 2.85 16.611 15 21.936 12.36 5.42 23.62-10.093 33 2.064 15.17-10.921 33.37 7.929 49.71-1.164 10.34-5.757 2.25-12.166 4.22-19.836 1.29-5.058 7.42-9.266 10.78-12.995 4.66-5.153 11.1-6.929 15.29-5e-3l18.21-7.401 7.09-1.627 9.7-12.972-1-4c8.42-0.512 20.5 3.387 25-5l10-1-3-5v-1c5.69-3.153 8.48-4.993 15-4l6-8h1c8.66 15.403 20.57 3.993 28-7h1l8 4c3.79-6.667 11.2-9.294 18-12v5c5.04-2.662 7.84-1.985 13 0l17-8-1-4c3.46-0.042 6.56 1.784 10 1.566 10.51-0.666 23.5-5.551 34-7.855 4.85-1.066 8.98-4.396 14-4.642 5-0.244 12.28 0.258 17 1.897 4.52 1.572 8.9 5.371 13.96 4.843 6.53-0.684 14.78-33.943 26.04-13.809 4.57-2.895 4.44-8.165 8.28-11.552 4.93-4.344 14.69-4.925 20.72-9.372 11.41-8.416 18.89-20.703 30.15-29.421 9.54-7.386 13.88-18.903 26.85-11.655l1-17c7.84-1e-3 12.68-0.234 14-9l8 2 16-23 6 2c1.55-5.241-0.94-11.031 1.02-15.96 4.77-11.979 15.99-19.754 10.38-35.04-2.62-7.129-10.42-12.323-14.1-19-5.5-9.968-8.04-19.332-19.3-24 0.93-4.765 5.05-10.397 4.61-15.015-0.36-3.863-2.82-11.163-6.72-12.748-2.68-1.092-5.76 1.233-8.15-0.88-4.37-3.863-10.23-14.097-12.74-19.357 5.46-2.006 5.34-6.791 6-12 5.47-0.496 14.06-3.378 18.79-6.175 2.39-1.412 3.59-4.398 6.31-5.284 10-3.25 30.34 0.1 24.9-17.541 5.7-3.174 2.86-8.569-2-11-5.03 11.057-21.09 6.116-31 7.286-32.8 3.869-66.08 3.956-99 7.999-45.43 5.58-92.26 11.474-138 12.586-7.23 0.176-14.74-2.284-22-2.782-25.1-1.718-49.9-2.53-75-4.919-58.81-5.596-118.45-8.54-177-17.47-10.35-1.579-20.48-6.66-31-8.7z" fill="currentColor" stroke="#000" stroke-linejoin="round" stroke-width="2"/>
 <path id="zachodniopomorskie-island-1" d="m71.924 280.01l-1 18 12-7.382 12-1.618-2 11 30.682 5.738 3.318 15.262c1.209-8.039 5.53-20.133 9.969-26.999 3.069-4.746 7.744-7.681 10.012-13.005 3.808-8.936 2.873-21.643 15.019-22.996v-2c-3.644-0.617-7.344-2.395-10.985-0.895-3.718 1.531-5.939 5.776-10.03 6.408-9.834 1.519-20.528-0.425-29.985 4.537-16.036 8.415-19.186 24.763-39 13.95z" fill="currentColor" stroke="#000" stroke-linejoin="round" stroke-width="2"/>
 <path id="zachodniopomorskie-island-2" d="m154.92 268.01l-3 9c5.735-1.368 9.346-5.398 3-9z" fill="currentColor" stroke="#000" stroke-linejoin="round" stroke-width="2"/>
 <path id="zachodniopomorskie-island-3" d="m57.924 275.01c-0.295 14.291-1.8962 28.52 14 36l-5.8943-20 0.8233-11.412-8.929-4.588z" fill="currentColor" stroke="#000" stroke-linejoin="round" stroke-width="2"/>
 <path id="zachodniopomorskie-island-4" d="m80.924 298.01h6l-2-5-4 5z" fill="currentColor" stroke="#000" stroke-linejoin="round" stroke-width="2"/>
 <path id="zachodniopomorskie-island-5" d="m71.924 303.01l5 10h1l8-9-14-1z" fill="currentColor" stroke="#000" stroke-linejoin="round" stroke-width="2"/>
 <path id="kujawsko-pomorskie" d="m800.92 356.01c-0.042 4.652-0.403 7.826-4 11l1 5-6 5-13-7-2-7c-5.367 2.367-15.461-2.472-17 3 15.929 4.559 2.827 18.198-7 20.516-5.645 1.332-9.19-3.414-15-2.516l2.974 14.272 9.026 6.728-3 4-6 6-8-6c-3.545 4.214-6.926 3.214-12 3 2.15 4.84 3.684 8.909-3 10l-8-10h-1c-5.024 5.84-7.973 4.306-15 4l-1-11c-6.652-0.31-13.707 5.704-16.258 12.043-3.988 9.912-2.513 21.82-8.021 31.942-3.489 6.413-10.872 10.293-15.208 16.104-3.162 4.239-1.047 9.406-3.541 13.586-2.417 4.053-6.857 5.827-8.972 10.325 10.896 1.77 16.155 14.313 22.053 22 2.358 3.072 8.321 8.235 8.892 12.104 0.437 2.96-1.33 9.246-2.933 11.749-3.013 4.701-15.72 6.354-21.012 7.147v20l8 3-6 5c0.016 5.621 4.221 18.621-4 19 0.811 6.869 0.544 15.084-6 19-0.054 2.391-0.778 4.66-0.842 7.039-0.295 11.058 10.83 4.879 16.842 7.68 5.144 2.397 9.071 7.496 15 7.281 4.876 11.768 12.737 21.714 12 35l-3-2c0.019 5.611-0.737 29.357-12 18-3.233 1.891-8.026 3.814-6 8v1c-4.617 4.456 8.925 7.685 12 8 0.047 4.287 2.205 8.604-2 11v4l5-1 2 4c11.835-5.163 30.21-14.638 23 7l10 1 1 13h1l10-6c-0.973-4.421 0.329-5.583 4-8l1 6 5-6h1c3.395 3.907 6.734 6.604 12 7l-1 4 7-2h1l11 17c3.061-4.094 4.756 0.839 5 4l10-1-3 10 5-3c10.204 2.633 13.846 0.444 16 12 4.875 0.377 6.619 2.405 8 7 6.12 0.177 13.121 1.522 15 8l15-0.869 21-15.131c0 11.108-2.778 27.06 13.741 20.126 3.981-1.672 6.465-6.908 11.269-6.445 8.331 0.802 10.355 12.116 18.99 10.319l9.401 5.433 7.773 14.293 8.666 8.29 6.594 12.326 8.566-1.758 22-5.584-1-4h4l1-6h2l7 13c3.333 1.799 4.84 3.156 5 7 8.51 2.392 11.04-1.419 19-2.362 9.77-1.159 12.36 2.879 21-4.638l4 5 13.01-18.17-2.67-13.49 8.72-3.944 9.94-16.396c-4.64-3.167-9.67-5.796-8-12h1l2 2 11-21-14-6c2.65-8.079 6.82-13.939 15-17l-2-16h19l2-6-4-12c-7.57-0.026-12.26-1.814-13-10-14.51-4.351-1.61-21.299 8-19-2.04-8.9-10.02-16.204-8-26l7 3c7.05-7.868 10.23-10.74 14-21l23 10c-0.92-11.505 1.69-20.53-9-27v-1c6.95-7.881-1.31-15.847 0-25l14-2c1.39-4.822 5.91-5.899 7.88-10.104 1.68-3.573-0.83-8.289-1.41-11.896-1.44-8.963 1.52-13.743-10.47-14 0-6.57 0.01-13.183 8-14l-9.4-15.209-4.71-9.643-27.89 1.852c2.46-8.677-3.84-9.041-10-12l-2 4-4-1 1-6c-7.69-1.855-9.01-6.674-10-14-7.8 0.099-10.78-2.809-13 6-3.8-2.024-9.15-4.533-10.53-9.004-1.64-5.336 3.1-10.606-4.47-12.996l-4.68-17.714 3.68-11.286c-4.55-2.837-4.07-7.833-8.15-10.598-10.6-7.193-23.96-3.962-35.85-3.441-4.796 0.21-11.085-1.458-14 3.039l-6.299-5.258-25.701-1.742 5-28-22.985 1.078-15.015 5.922c-1.178 3.882-3.048 4.699-7 5l-6-8 1-6c-5.493-0.913-8.141 0.853-10 6h-2l-1-3-36-2c2.137-7.566 3.395-14.44-7-12l-1-3h-1l-3 4v-5c-4.832 0.917-7.196 0.105-8-5-8.045 0.629-9.761-1.252-16-6z" fill="currentColor" stroke="#000" stroke-linejoin="round" stroke-width="2"/>
 <path id="wielkopolskie" d="m558.92 400.01c-5.228 3.916-11.34 4.059-14.941 10.016-2.836 4.69-1.508 9.898-2.936 14.984-2.457 8.757-10.396 15.897-18.123 20.436-5.367 3.153-20.428 4.593-26.83 5.157-7.12 0.626-13.198-6.754-15.17 5.407l5.934 18.44 30.066 14.464 15 9.096v4c-5.784 0.068-13.664 2.695-16.486 8.29-2.884 5.72 1.873 13.34-6.514 14.71-1.091-5.043-4.191-5.776-9-6v3l-8.569 11.382-21.128 4.825-6.303 9.793 2 6-5 4v1c6.105 7.245-1.063 13.888-8 18l2 5c-4.813-0.017-7.677-0.312-11-4l-29.715 11.925-16.285-1.925-1-5c-3.24 0.572-12.138-2.247-13.948-0.203-1.93 2.181-1.883 9.353-2.012 12.203-0.539 11.87 3.439 23.467 1.424 35-1.144 6.549 1.156 13.342-7.464 14l2 8-11 1c0.424 5.316 4.894 4.939 6.268 9.185 0.731 2.26-1.063 4.426-0.594 6.735 0.889 4.379 4.041 8.289 1.298 12.932-4.096 6.932-26.418 6.748-33.972 9.148l2 11c-8.205 1.309-6.262 11.486-5.981 18 0.336 7.76 6.768 14.739 8.558 22.089 0.803 3.297-2.213 6.171-0.394 9.456 3.052 5.509 11.847 11.793 5.817 18.455v2l3 1-4 10h-1l-7-11c-3.478 1.331-5.907 4.01-3.957 7.961 3.764 7.625 14.309 10.596 18.628 18.463 2.974 5.418 5e-3 14.2 2.329 20.576-13.883 4.009-15.389 24.704-12 37-5.724 5.028 5.676 14.36 4.883 20.911-0.635 5.25-5.637 7.962-3.141 14.034 1.686 4.101 8.952 7.687 12.258 4.055 6.654 2.703 17.587 12.262 5 16 0.167 8.031 8.232 21.158 17.91 19.356 4.476-0.834 9.15-6.137 13.957-4.648 4.084 1.266 5.285 7.712 6.133 11.292l-3 1c2.658 9.981-2.196 9.648-4 18h13c1.631 4.422 3.83 4.889 8 3l1 6 13-13c3.126 3.637 10.638 4.82 14.956 7.468 4.021 2.465 9.466 9.075 12.46 12.829 4.575 5.737 2.025 10.722 4.202 16.613 1.722 4.661 9.939 12.267 13.896 15.35 7.335 5.71 20.285 7.33 26.886 14.3 8.821 9.33-0.631 17.28-0.144 26.38 0.441 8.25 20.852 10.24 26.744 10.06 0.302 6.92 6.629 22.11 13.418 25.4 3.483 1.68 7.817-0.43 11.257 1.63 8.469 5.06 11.088 14.55 23.325 10.97l-1-4c4.372-0.61 6.835-0.15 10 3h2l1-6 10-3c3.426 9.32 11.21-0.28 17 5 4.215-6.17-2.513-15.76 4.11-20.03 14.754-9.5 34.254 2.16 47.89 7.72 3.708 1.51 8.305-0.58 11.262 2.74 7.803 8.76 21.857 30.3-1.262 30.57l6.302 24 3.132 8.38 11.566-2.26 17 4.88 2-6 8 2 1 8c-3.699 0.61-7.705 3.55-6.959 7.96 0.97 5.74 7.384 10.64 8.501 17.04 0.733 4.2-2.088 7.89-2.433 12-0.458 5.45 2.748 15.09 5.814 19.63 3.701 5.47 12.083 5.94 15.149 11.14 2.176 3.7-1.262 11.3-2.072 15.23l-3-1-1 1c5.7 15.92 47.819 9.25 48-6l17-3 3-12c-7.101-6.47 2.533-16.97-3-26h-1c-2.973 2.28-8.43 4.46-10.803-0.23-1.406-2.78 0.047-6.73-0.541-9.77-1.104-5.7-4.935-12.64-8.656-17l12-3c1.872-9.3 6.927-5.04 12.852-8.94 5.27-3.48 2.881-11.3 1.148-16.06l7-5 24 14c1.8-7.14 7.628-12.51 9.567-19.1 1.95-6.63-1.528-13.46-0.518-19.9 1.058-6.75 4.733-17.19-2.049-21l-1-10 5-1 1-5-4-10h4v-4c10.765-1.76 7.627-22.43 9.344-30 0.924-4.07 2.857-7.78 3.656-12l4 1 10-9 2 7c12.212-4.396 18.008 0.48 30 2 2.376-13.734 19.664-20.149 21.083-33.96 0.472-4.594-7.631-8.124-9.48-12.211-2.015-4.455-0.264-9.797-2.603-14.829 8.784-4.535-1.472-13.707 3.028-20.605 6.42-9.842 23.547 11.47 23.972-8.395h18c-0.708-4.559 2.72-8.632 1.663-12.779-0.977-3.831-6.228-3.763-6.306-8.265-0.352-20.512 19.323-24.066 34.643-16.956l1-1-3-6c4.36-1.533 9.29-8.112 3.68-11.82-3.23-2.133-8.13-0.46-11.68-0.18l3-20-9-2-4-13-9-7v6c-9.542 3.261-16.843 7.512-27 9.454-2.472 0.473-5.719 3.189-8.196 1.602-3.923-2.514-4.291-11.051-7.704-14.832-4.401-4.876-8.698-5.887-9.1-13.224l-6.603-7.821-9.397-4.179c-4.441 0.741-6.09-0.64-7-5l-15-6-4 7c-4.098 0.323-11.245 3.138-15.022 1.299-5.432-2.646-2.978-16.257-2.978-21.299-7.026 0.792-18.487 12.455-23 18h-1c-2.935-2.209-5.939-0.959-9.026-2.522-6.997-3.544-8.928-7.447-17.974-7.478-0.6-5.325-2.77-6.829-8-7l-1-11-14-1-6 3 3-10c-6.441 1.711-8.718 0.083-11-6h-2l-1 3-4-9-7-8-10 1 2-3-12-7-5 6-1-5-5 2v1l2 3-9 4-4 3-1-13-10-2c1.233-2.59 4.288-8.885 2.833-11.697-3.284-6.345-19.667 1.686-21.833 5.697l-5-4-6 1 4-6-2-9c-13.621-3.894-16.84-10.433-5-19 2.831 3.922 8.056 3.425 10.347-1.109 2.554-5.052 0.668-11.479 0.653-16.891l3 1c1.425-7.628-3.603-22.541-10-27l1-2c-5.476-3.434-11.217-8.487-17.17-10.927-10.346-4.24-14.398 2.789-18.83-11.073 7.741-5.828 9.127-15.033 8-24l5 1-1-20 6-1v-2l-8-3v-22c4.743-0.217 17.901-1.841 21.012-5.589 7.822-9.426-0.311-18.039-5.959-25.411-6.465-8.439-10.949-17.417-22.053-21 2.565-3.632 6.851-6.333 8.972-10.17 2.487-4.498 0.723-9.399 4.303-13.791 5.318-6.523 14.337-11.321 15.725-20.039l-12-2v-3h-4c-2.345-11.014-20.799-5.305-29-6.188-4.141-0.447-8.777-2.974-12.985-1.922-4.815 1.203-6.412 6.28-12.015 6.032-10.949-0.485-3.352-15.81-17-7.922-1.696-8.216-4.555-15.315-7.768-23-1.016-2.43-1.488-7.375-3.802-8.914-4.79-3.184-5.896 7.778-11.43 1.914z" fill="currentColor" stroke="#000" stroke-linejoin="round" stroke-width="2"/>
 <path id="mazowieckie" d="m1450.9 463.01l1 5-18.67 6.422-13.33 1.578v-4c-7.14 0.732-13.62 4.616-17 11-16.96-6.702-23.56 22.498-37 3l-20 10 3 8-12 1-4 7c-7.26-2.778-12.46-3.527-20-2l1 4c-6.65 1.083-8.13 8.092-9 14l-24 6-4 2c-5.37-15.672-35.39 12.103-20 21l-3 8c-5.91 1.742-9.94 5.547-16.58 5.942-10.75 0.641-31.68-11.956-38.42 0.058-9.71-14.161-25.56 2.969-39-7.407-2.27-1.749-5.41-3.359-6.51-6.184-0.94-2.43 1.87-10.387-3.55-9.079-3.87 0.934-10.99 6.504-11.36 10.674-0.29 3.271 2.92 7.677-0.9 10.067-7.1199 4.457-22.38-7.885-23.68 8.929l-15 3 3.92 15-1.13 8.791 6.08 7.252 0.13 20.957-23-10-14 21-7-3 3 7c-1.07 6.618 1.99 11.745 7 16v1c-7.41 2.231-27.26 16.959-9 19 0.26 10.69 5.93 6.195 11.4 11.604 2.47 2.45 4.16 9.086 5.6 12.396l-5.06 6.389-15.94-0.389 2 16c-5.74 1.142-17.85 7.865-12.97 15.471 2.46 3.836 8.85 5.402 12.97 6.529-4.07 4.823-13.46 15.586-11 21l-5-1c-0.82 5.765 4.01 8.406 9 10-4.63 9.91-9.83 17.957-20 21l8 18-4 4v1l7 2c1.42 15.682 13.48 8.691 23.29 11.803 6.32 2.01 8.48 7.236 9.71 13.197l19 4v4h3v6l14.61-5.419 11.39 2.26 14-7.841c1.97 4.88 5.24 3.474 9 1v-1c-2.15-11.027 10.48-5.178 16-5 0.46 14.154 15.19 10.162 22.55 17.638 3.45 3.502 0.59 8.199 0.6 12.362 0 4.378 4.16 13.415 7.41 16.396 2.97 2.726 7.79 0.979 11.27 2.744 4.05 2.055 5.78 7.354 10.22 8.542 4.17 1.114 9.01-0.922 12.38 2.636 4.18 4.424-1.85 16.493-5.77 20.045-1.91 1.725-7.24 3.262-6.74 6.558 1.03 6.775 11.52 4.747 14.47 9.152 2.14 3.19 4.51 8.91 1.85 12.429-2.04 2.691-8.24 3.646-6.58 8.285 3.07 8.574 18.58-6.903 14.34 8.213l11-1 6-4 2-5h1c4.29 4.183 8.59-0.857 13.93 1.464 6.86 2.983 7.55 9.956 12.54 13.508 3.66 2.611 9.43 0.102 13.53 1.631 6.37 2.378 17.34 14.162 20 20.397h-11v2c6.78 4.16 3.9 14.11 5.41 20.78 1.12 4.98 9.67 4.86 11.59 10.51 2.71 8-5.81 16.58-7 23.71-6.56-1.58-13.54-1.37-20-3.3-10.96-3.29-24.45-12.5-34.39-0.31-2.07 2.53-2.43 7.49-3.61 10.61l7 1 4 21 8 2c-1.21 4.93-6.07 17.95-2.13 22.15 7.66 8.14 17.12-8.8 18.56 5.85 0.14 1.34 0.28 2.65 0.09 4-1.07 7.43-9.1 17.85-14.61 22.66-2.84 2.47-7.39 3.21-9.34 6.57-2.86 4.95-1.24 11.48-0.57 16.77 7.01 1.6 17.68 1.57 19 10l-5 1v2l5 1 8 20c5.07-1.26 7.97-3.62 13-1 7.08-4.67 20.33 6.24 22.73 14 1.07 3.48-1.43 8.37-1.73 12 3.55-1.22 4.34-3.41 5-7l11 6v1l-2 2c5.16-0.65 10.99-0.41 15.96-1.94 7.25-2.24 22.55-13.34 25.04 1.94 11.23-2.34 11-9.06 11-19 12.58 2.54 6.56 9.99 4 18 4.79 2.39 11.54 6.68 13.36 12.09 0.99 2.95-1.54 7.49 1.25 9.73 2.93 2.36 8.07 0.5 11.39 0.27 9.92-0.68 20.06-0.09 30-0.09l5 14 19.93 6.58 6.07-7.58c-0.82-14.26 22.83 0.7 24-14 3.64 0.93 8.65 0.48 11.9 2.06 7.33 3.58 13.16 10.58 22.1 9.94-1.81-6.01 2.84-7.67 4.23-13 1.14-4.38-0.92-9.48-0.35-14 0.44-3.43 3.09-6.59 3.14-9.98 0.08-6.13-9.13-5.88-7.32-13.02 2.39-9.39 12.89-25.04 10.3-34l-10 1-1-5c6.45-1.18 14.77-13.1 10.68-19.68-1.94-3.12-12.12-6.36-15.68-7.32 2.47-10.26 7.23-11.74 16-9 0.02-6.76 3.62-12.46 3.72-19 0.13-8.16-5.2-13.76-9.07-20.17-1.91-3.17-1.27-7.72-4.8-9.8-8.55-5.06-18.23 3.58-26.76-4.24-4.51-4.14-13.03-19.7-4.77-24.57 8.35-4.93 16.29 10.72 22.68 11.78 1.54-9.95 11.26-13.08 20-11-0.3-5.48-0.27-9.98 6-11l6-11c-5.55-1.6-5.78-4.8-5-10l-9-1v-2l14-6 1-5c9.84-1.58 18.42-16.447 4.83-20.67-4.26-1.323-11.58 6.5629-14.65-0.434-1.22-2.756 7.78-9.728 8.79-13.896 2.97-12.239-15.75-21.264-4.58-32.61 5.74-5.828 14.11-4.319 20.2-8.526 4-2.768 5.66-8.421 11.41-8.566 6.92-0.174 15.11 4.412 21.98 3.28 4.92-0.81 4.37-7.709 9.08-8.073 5.31-0.411 9.79 4.565 14.9 4.852s5.65-8.504 9.92-7.726c5.02 0.917 0.92 10.255 7.16 9.688 5.7-0.516 13.77-4.645 16.87-9.338 4.09-6.196 3.22-12.99 12.09-13.981 1.17 5.635 14.01 15.984 19.26 9.678 3.96-4.762-1.2-11.444 0.94-16.674 4.93-12.05 23.82-4.938 27.8 3.996 3.21-0.803 6.62-3.282 10-2.582 3.39 0.7 7.04 5.014 10.68 3.131 6.7-3.46 0.68-14.419 13.32-12.549l1-1c-1.22-2.3-4.41-5.312-4.37-7.999 0.05-2.919 3.39-4.732 5.27-6.464 7.96-7.335 10.57-6.624 21.1-6.537-2.39-3.641-8.88-4.634-9.88-9.101-1.04-4.657 5.02-7.661 7.84-10.199 6.54-5.876 10.71-13.69 14.04-21.7-4.85 1.308-11.19 5.248-16.43 2.548-3.44-1.775-2.54-7.394-5.08-10.129-3.82-4.096-17.09-9.045-22.49-10.702-5.79-1.776-12.96 2.238-19 2.278-7.03 0.047-11.42-4.009-18-5.365-5.37-1.106-10.8 1.008-16-0.202-6.63-1.544-18.88-9.31-21.96-15.468-1.33-2.665 0.36-5.955-1.16-8.401-2.25-3.63-6.7-3.751-8.23-8.563-1.41-4.434 0.49-9.54-1.25-13.826-2.74-6.714-9.2-9.192-10.4-17.17-5.33-0.849-13-8.229-13.46-14.019-0.25-3.237 2.49-5.796 2.67-8.981 0.54-9.786-2.11-19.955-1.04-30 0.35-3.211 2.91-8.469 0.79-11.411-1.98-2.739-8.82-3.732-11.96-4.589l1 6c-5.12 0.061-7.44 0.903-9 6h-2l-9.26-7.564-3.64-10.436-2.5-8.308 10.4-3.692-7-1 3-4v-2c-4.46-2.707-15.64-5.634-20.4-1.972-5.11 3.922-5.29 7.604-12.6 10.092-4.58 1.558-10.1-2.419-13 1.88-4.34-1.972-7.6-3.166-9-8h-4l-4-14v-1l6-5v-1c-2.9-4.242-2.89-11.225-5.62-14.428-2.7-3.163-6.92-1.91-10.38-3.175-11.55-4.227-8.41-11.476-6-20.397l7 3-2-13c-2.22 1.307-4.52 4.07-7.02 4.671-7.28 1.744-10.57-11.979-15.19-14.898-5.19-3.271-11.49 2.725-16.79-0.416-9.27-5.501-7.45-11.107-8.91-19.357-0.83-4.658-4.33-11.503-6.19-16-2.27-5.505-7.3-9.228-8.9-15 10.17-3.376-4.66-10.14-0.25-15.4 3.15-3.75 13.66-0.873 18.25-1.6l-7-7h-7l5-11c-5.81-4.81-10.54-12.542-8-20-4.89-2.221-5.99-4.898-7-10-12.6 1.627-21.49 6.82-34 4z" fill="currentColor" stroke="#000" stroke-linejoin="round" stroke-width="2"/>
 <path id="lubuskie" d="m1922.9 495.01l1 1-1-1m-1560 59c-0.084 7.071-3.252 9.391-9 13 0.482 5.439-3.325 5.887-8 6l4 8c-4.739 1.111-9.18 3.313-11 8 4.698 5.388-3.717 7.338-8 9l-3-5h-1c-11.651 9.938-22.744 10.019-29-6-10.737 0.468-21.952 5.689-30.96 11.352-3.111 1.956-5.435 6.898-9.133 7.527-3.62 0.615-8.374-2.062-11.907-2.879l-1 1 7 17c-13.435 3.87-25.804 12.108-39 16.947-6.788 2.489-13.51 4.867-16-3.947l-10 7c-1.54-8.504-7.814-12.303-15-16l-3 8 5 1c-1.768 4.86-4.304 4.709-9 4l-3 5c2.081 14.26-7.327 11.527-12.821 21.133-2.458 4.297-0.66 10.175-1.393 14.867-0.835 5.352-10.088 20.101-14.805 22.542-10.285 5.322-16.842-14.371-23.981-1.542-8.683-3.197-16.682-5.907-21 5 6.244 4.247 18.015 10.839 19.281 19 0.841 5.418-1.954 10.687-2.148 16-0.195 5.301 1.337 9.043-1.514 14-6.506 11.31-19.933 18.865-18.366 34 0.477 4.605 3.62 8.566 4.82 13 1.745 6.454-0.131 15.087 4.58 20.482 5.1 5.841 17.256 6.989 18.989 15.519 1.723 8.483-1.643 21.863-1.642 30.999 0 4.497-0.901 10.031 3 13l-1 2 8 4c-5.049 17.043-0.608 37.69-8.139 54-3.023 6.547-10.097 15.616-14.966 20.999-3.259 3.603-8.395 6.741-8.767 12.016-0.419 5.937 4.825 9.77 6.739 14.985 2.643 7.203-0.595 16.13 3.99 22.81 4.06 5.93 12.082 6.56 14.49 14.19 2.405 7.62 3.373 20.79-0.626 27.96-2.255 4.05-8.753 6.16-9.256 11.05-0.838 8.17 9.287 11.18 14.531 14 4.425 2.39 6.034 7.46 10.108 10.13 4.764 3.13 10.145 1.98 14.896 5.88 3.974 3.26 15.867 11.66 8 15.98 2.377 6.92-2.219 20.3 8 22 0.834-9.48 4.82-9.17 13-9 1.338-8.42 5.986-7.21 11.406-11.6 6.268-5.07 9.709-12.11 18.594-12.4v6l9-2c2.517 5.53 8.291 10.98 14 13 0.406-7.51 2.628-19.73 11-20l3-21 4 3 18-1h1c5.911 8.39 21.744 15.63 20 27l13-10c1.643-5.98 2.607-12.28 10-13 0.626-3.42-0.748-9.84 1.067-12.6 3.039-4.61 16.059-3.51 20.933-3.4l7-41c7.279-2.15 13.148-11.01 19.39-15.24 2.574-1.74 5.867-1.07 8.292-3.34 5.157-4.824 2.04-10.241 11.318-8.42-0.868-2.571-5.719-5.718-5.218-8.292 1.164-5.969 13.022-2.91 12.218 4.292 10.046 0.329 16.448 12.43 28 6.9999l-4 19c13.53-1.7 10.301 4.5 5 13l16 10c3.103-13.57 14.247-18.41 21.721-29 2.515-3.56 1.559-7.18 3.021-11 1.79-4.68 6.413-8.0699 10.258-11-1.966-4.732-0.477-9.362-2.294-13.996-5.975-15.237-19.131-18-31.706-25.004l-12 13-1-5c-4.211 0.477-5.618-0.564-8-4h-13l6.138-9.959-2.138-10.041 3-1-3-10c-6.641 0.156-13.764 6.665-19.995 4.873-3.663-1.053-5.423-4.483-8.26-6.703-3.163-2.476-6.257-4.659-6.292-9.151-0.044-5.638 8.301-7.122 4.518-13.91-3.838-6.888-29.863-2.11-21.816-18.05 0.936-1.854 2.271-2.811 3.845-4.059-1.059-7.068-6.203-12.478-7.481-19.015-0.762-3.898 1.092-8.063 1.145-11.985 0.184-13.593-0.171-22.622 12.336-30l-2.88-20.999-20.12-22.001 8-4c0.303 5.484 2.575 7.188 7 10l3-7-3-1 3-4c-1.11-8.234-6.177-11.334-8.854-18.129-1.206-3.061 1.659-5.664 1.031-8.701-1.404-6.8-7.925-13.334-9.029-20.209-1.177-7.333-1.557-17.39 5.852-20.961l-2-11 25-4.919 8.972-2.681-1.053-20.905-4.948-7.466 10.029-3.029-2-7 7-1v-62c10.285-3.006 8.177-16.743 7-24l-25-3z" fill="currentColor" stroke="#000" stroke-linejoin="round" stroke-width="2"/>
 <path id="lodzkie" d="m1038.9 818.01c-5.67 5.622-11.75 9.457-12 18l-6-4c-2.78 1.587-5.74 4.347-9 4.731-5.75 0.679-10.72-3.224-16.54 0.228-7.01 4.152-6.75 14.924-7.46 22.041 9.34-1.234 20.38 4.328 9 13l1 8c-15.15-7.029-33.637-5.165-34.732 14.981-0.278 5.105 5.515 5.522 6.356 10.048 0.775 4.168-2.574 7.409-1.624 11.971l-18 1c-1.653 18.787-16.099-0.037-23.4 6.762-4.144 3.858-0.071 11.554 0.072 16.068 0.416 13.151-6.183 23.22 10.328 30.17-2.612 4.048-4.272 9.447-6.911 13.062-5.848 8.012-15.505 12.701-16.089 23.938-12.657-1.61-19.06-6.658-32-2l-1-6-13 7-3.584 20-2.416 18-11 8c0.071 5.99 6.019 12.59-2 15l1 10c6.519 4.09 2.631 14.29 1.609 21.09-0.751 4.99 1.677 10.64 1.347 15.91-0.383 6.13-8.598 21.12-13.956 24-4.842-9.84-17.749-11.73-27-10 1.338 5.06 3.703 11.17-0.573 15.57-6.214 6.39-12.019-0.05-14.427 11.43l-10 1v2c7.593 7.95 5.635 17.64 8 27l10-3h1c1.791 3.14 3.864 6.23 3.721 10-0.214 5.61-7.211 12.99 0.279 16l-3 14 22.039 6.72 18.961 1.9 24 6.38 3 9c4.995-4.55 6.98-8.3 5-15 11.036-1.29 11.429 6.72 13 16 8.694 0.1 8.71 9.69 16.003 9.96 3.997 0.15 5.803-4.04 9.167-5.35 2.827-1.11 5.913 0.11 8.83-0.24 9.727-1.14 17.126-4.74 26 0.63l6-12 26 20 0.62 4.67 19.12 6.57 15.22 5.32 9.15-12.55 13.89-1.01c-4.95 8.85 1.77 9.23 4 17 13.17-2.67 10.68 5.9 16.85 14.82 7.04 10.17 11.15 11.74 11.15 25.18l17.58-6.71 17.42 7.71c2.09 16.54 9.15 9.74 22 10l17.53-24-0.18-15 8.65-23c3.89 3.96 8.9 4.77 12.89 8.34 7.26 6.51 7.32 14.38 19.11 15.66l4-32-13-2c1.96-6.57-1.57-14.04 0.33-19.91 1.22-3.76 5.95-5.61 6.98-9.33 1.1-4.01-5.09-7.05-1.05-10.5 5.32-4.54 12.76-0.79 18.74-0.35 7.82 0.57 17.81-2.12 24-6.91h1l2 3h1l7-7-5-11c8.66 4.36 18.69-4.05 23 5l5-2-2-7 3-1c-2.27-4.13-7.76-11.23-2.76-15.4 3.57-2.99 8.95-1.5 11.01-6.65 2.29-5.73-1.7-11.96 1.32-17.91 2.49-4.89 8.4-5.31 11.9-9.23 8.99-10.06 10.74-18.24 12.53-30.81-6.18-1.14-10.59 5.39-16.86 1.7-7.2-4.24-0.41-14.48-1.05-20.64-0.42-4.07-5.02-3.82-6.49-7.21-2.04-4.71-3.32-12.68-4.6-17.85l-7-1c1.1-3.52 1.45-8.71 3.74-11.61 10.25-12.94 23.7-3.63 35.26-0.45 6.17 1.7 12.77 1.56 19 3.06 3.02-6.12 10.76-17.34 6.13-24.37-2.54-3.86-9-4.32-10.36-8.74-2.06-6.7 1.28-16.56-5.77-20.89v-2l11-1c-2.62-5.5789-12.9-17.112-19.01-18.682-4.17-1.07-9.85 1.15-13.58-1.346-5.79-3.869-12.36-23.834-22.41-10.972h-1l-4-4-1 5-7 4h-12l2-7h-18c2.02-5.324 4.49-7.408 10-9-0.23-4.512-0.34-11.014-4.55-13.927-3.48-2.411-13.2-2.784-13.1-8.98 0.05-3.06 4.59-4.135 6.5-5.741 3.18-2.672 9.39-15.259 6.83-19.034-2.7-3.988-8.79-1.459-12.66-2.921-4.29-1.618-6.16-6.52-10.31-8.473-3.94-1.856-8.83 0.051-12.12-3.497-2.79-3.008-7.19-12.366-7.28-16.427-0.1-4.231 3.09-8.828-0.63-12.351-7.37-6.977-20.6-3.267-22.68-16.649l-8-4c-4.18 1.252-6.51 2.835-8 7h2c-2.42 4.191-6.02 6.77-10 3-5.2 1.519-9.3299 6.478-15 6.799-3.59 0.203-6.47-2.981-9.91-2.628-2.88 0.294-4.67 3.404-7.13 4.65-6.87 3.482-9.77-3.682-11.96-8.821l-15-1v-3h-4c-1.5-22.537-27.8-4.871-33-25-7.63-1.562-3.13-6.286-7-11z" fill="currentColor" stroke="#000" stroke-linejoin="round" stroke-width="2"/>
 <path id="lubelskie" d="m1809.9 832.01c-3.11 7.466-7.2 14.235-13.04 19.91-2.67 2.595-8.75 5.681-8.3 10.086 0.46 4.545 6.8 6.53 10.34 8.004l-1 4c-8.77-2.775-22.64-1.343-25.25 10.039-0.85 3.735 3.18 7.097 3.25 10.961-3.45-0.749-7.75-1.233-9.97 2.279-2.07 3.268-0.33 10.004-6.05 10.161-3.64 0.1-6.33-3.504-9.98-3.678-2.68-0.129-5.17 2.278-7.79 1.662-7.25-1.707-21.46-18.28-28.14-4.384-1.9 3.947 0.65 8.819 0.42 12.96-0.18 3.236-2.29 6.072-3.49 9-5.24-2.335-10.24-4.488-14.94-7.879-2.08-1.507-4.12-4.975-7.06-4.539-4.31 0.642-4.67 7.359-6.46 10.418-2.82 4.827-14.88 15.485-21.22 11.211-2.86-1.923-2.59-7.175-3.32-10.211h-3c-5.75 13.698-13.99 6.005-25 3-5.19 16.566-18.36 4.362-30 5.843-4.95 0.629-6.64 5.775-10.21 8.429-6.31 4.697-16.6 2.275-21.35 9.941-7.57 12.23 9.64 19.945 5.67 32.786-1.05 3.389-9.85 9.791-8.02 12.416 2.72 3.912 8.65-0.17 11.9-0.437 3.87-0.319 8.56 5.647 9.61 9.0219 2.03 6.56-11.22 11.64-12.6 18-6.18-0.49-10.75 1.53-14 7h9c-1.11 5.64-1.92 9.47 5 10l-5 12c-7.52 1.65-7.53 5.08-7 12-5.68-1.35-12.18-1.83-16.85 2.39-2.09 1.89-3.21 7.21-6.19 7.69-2.94 0.47-3.94-3.81-5.52-5.45-2.67-2.76-9.28-6.93-13.29-6.21-10.17 1.82-0.16 21.7 4.02 24.93 7.7 5.93 17.02-1.4 24.81 2.68 4.94 2.58 4.1 7.46 6.67 11.55 7.32 11.64 14 29.02 1.35 40.42-3.64-9.04-10.73 0.72-12 6l15.62 9.06-3.62 17.94-6 5 9-1 3 7c-7.87 3.93-12.92 25.48-13 34 5.03 1.51 7.49 3.97 9 9-9.55 5.99-1.97 21.74-0.57 30 0.7 4.13-1.85 7.87-1.14 12 0.76 4.39 4.34 7.65 5.32 12 2.3 10.24 0.53 21.66 2.73 31.96 0.78 3.61 3.84 5.69 5.06 9.05 2.77 7.66 0.84 17.14 9.86 21.49 9.01 4.35 18.99 2.36 26.74-3.36 3.28-2.42 6.19-7.18 10.09-8.49 4.5-1.51 10.8 2.47 14.91 4.03 2.29 0.86 5.49 1.1 7.26 2.92 1.64 1.69 10.04 11.74 10.2 13.5 0.75 8.32-10.21 20.79-12.46 28.9 5.99-0.13 11.16-0.21 15.19 5 1.65 2.14 1.86 5.28 4.14 6.88 4.42 3.1 10.71 2.33 15.67 3.76 11.64 3.34 14.6 10.2 27 7.36l4 6c7.21-3.2 9.98 4.11 5 9v5c3.37 2.88 3.37 4.89 2 9 8.75-0.15 9.27 0.89 5 8l9-1c-7.5 14.79-15.83 11.28-29 8l4 10-12 5-2 6c10.13-0.68 8.9 4.46 14.57 10.72 2.29 2.53 5.85 3.16 8.43 5.28h1c8.3-5.05 18.63-3.96 28-4.83 1.95-0.18 9.03-0.86 8.37 2.8-1.47 8.17-14.03 2.63-14.37 13.03 6.58 1.52 13.2 5.23 20 5.53 13.92 0.61 29-2.96 43-2.38 8.38 0.35 16.31 4.37 25 1.24 8.27-2.99 14.78-16.66 19.9-23.39 2.28-3 5.8-8.33 10.1-8.17 4.56 0.17 10.43 5.57 14 8.17h1l17-13c3.72 8.37 7.43 13.86 17 16l-5 13 19.22 1.65 2.5401 8.37 8.24 7.98c14-3.32 15.05-16.68 23.33-25.91 4.41-4.91 11.18-7.19 14.58-13.09 3.22-5.6 1.46-12.11 7.14-16.49 15.39-11.84 43.47-4.02 56.42-17.84 12.51-13.34 12.13-35.66 12.54-52.67 0.14-5.43 1.41-10.54 0.55-16-0.76-4.83-4.19-7.87-5.23-12.15-0.97-4 5.64-5.56 4.01-9.58-1.56-3.83-8.02-1.34-10.83-3.87-3.8-3.43-1.28-9.17-3.69-13.18-2.41-4-8.5-3.98-9.41-9.24-1.34-7.74 9.04-17.84 15.59-20.23 3.61-1.32 12.87 2.17 11.51-4.77-2.19-11.18-18.87-7.63-23.98-16.98-5.74-10.52-13.65-21.76-17.69-33-2.4-6.68-2.58-16.93-5.92-22.78-2.63-4.59-9.26-5.04-11.89-10.22-2.28-4.5 0.63-10.37-2.06-14.61-5.42-8.55-18.01-14.4-24.54-22.5-4.12-5.11-0.21-12.57-4.29-17.38-4.87-5.73-13.64-2.79-17.48-11.51-4.97-11.28 9.45-26.09 5.91-39-1.02-3.71-4.76-5.55-5.88-9.09-1.11-3.5 1.78-8.14-0.72-11.31-2.09-2.65-6.28-0.65-8.88-2.55-3.3-2.4-2.73-6.63-5.1-9.45-2.32-2.75-6.6901-1.37-8.8101-4.83-3.04-4.95-4.58-16.89-5.79-22.77-1.56-7.58 4.05-14.26 3.52-22-0.44-6.4-6.48-13.78-3.58-20 2.96-6.332 12.38-7.868 13.52-15.015 1.52-9.506-5.6301-17.986-7.8501-26.985 12-4.531 2.01-8.636 4.84-18 1.9501-6.473 6.9601-10.939 9.2701-17 2.36-6.219-0.1-17.001-2.46-23-4.21-10.7-7.3001-25.733-21.65-17-2.54-8.079-9.5-8.08-14.52-14.039-4.52-5.374-1.99-10.144-10.48-12.961-4.17 4.937-8.36 2.77-10-3l-9.91-1.859-6.07 2.104-6.28-6.493-6.83 2.606-11.91-0.358-0.18-14.981-10.82-8.019h-2z" fill="currentColor" stroke="#000" stroke-linejoin="round" stroke-width="2"/>
 <path id="dolnoslaskie" d="m374.92 999.01l-7-2c-2.257 7.3399-4.186 12.52-13 12l-3 8c-3.804-0.85-6.068-0.16-6 4l-9 5-7 41-22 1-1 15-4-1-5 14c-8.067-1.34-7.207 8.78-15 10 2.46-13.5-15.211-23.51-26-26.87-3.25-1.01-13.503-2.03-16.142 0.52-3.903 3.78-1.964 14.71-0.858 19.35-10.217-2.99-11.926 10.85-12 19-10.763-3.23-12.462-11.99-25-11v-6c-8.845 0.48-11.621 7.28-17.633 12.4-5.592 4.76-9.927 2.14-10.367 11.6-8.559-0.18-12.782-1.19-13 9l-7-1c-3.181 11.72 14.079 20.99 11.851 31-3.408 15.31-10.285 30.45-15.722 45-2.061 5.52-1.395 11.5-3.234 17-4.829 14.45-10.937 28.49-15.325 42.96-1.575 5.19-7.786 6.16-11.526 9.38-6.145 5.3-6.818 13.21-5.044 20.66 11.242-0.09 26.254 5.17 37 0-0.929-3.92-3.085-7.9-2.631-12 0.92-8.33 12.976-26.98-3.369-24 0.168-2.23 0.34-4.06 1.603-6 9.676-14.83 18.312 0.86 29.358 3.03 3.4 0.67 5-2.9 8.078-3.27 3.215-0.38 6.927 3.21 9.961 4.24 4.474-8.37 15.857 1.68 17.438 8 1.728 6.91-4.048 13.03-3.25 19.96 1.055 9.17 15.017 15.45 18.209 24.04 1.525 4.11-1.119 10.9 2.457 14.16 3.713 3.39 8.118-5.05 13.147-3.12 17.632 6.8 33.233 16.6 50.999 22.85 7.323 2.57 13.888-6.18 20.957-0.57 8.312 6.59 10.216 21.5 15.043 30.68 5.59-1.9 16-8.51 19.397 0.05 1.745 4.41-4.363 14.19 1.676 15.59 10.899 2.53 9.812-14.7 19.927-16.41 9.923-1.67 12.857 10.65 23 10.77-0.828-2.9-3.243-6.81-2.292-9.87 1.905-6.1 13.865-4.5 18.292-2.87 7.684 2.84 28.031 20.97 28.984 29.7 0.317 2.91-2.512 5.49-3.506 8.08-2.517 6.56-6.264 13.33-12.482 17.22-3.13 1.96-6.623 1.19-9.906 2.48-11.942 4.7-24.911 15.99-20.437 30.26 4 12.76 18.827 9.5 25.457 20 2.729 4.32 1.807 9.35 3.783 13.81 1.664 3.76 5.927 4.53 8.458 7.46 2.892 3.36 3.382 8.1 6.207 11.56 5.467 6.69 15.498 11.43 19.414 19.17 2.739 5.42-0.103 12.28 1.346 18 2.117 8.34 19.787 24.81 28.681 24.81 14.598 0 21.269-23.45 30.577-31.49 10.011-8.66 25.571-1.24 28.424-16.32 3.786 1.97 6.384 11.79 9.985 11.79 4.649 0 3.383-18.51 2.787-21.79-1.627-8.93-11.317-10.22-16.169-16.38-2.781-3.53-0.925-8.6-2.446-12.62-2.146-5.67-7.718-9.8-8.584-16-1.421-10.16 8.678-15.27 13.485-22.58 1.695-2.57 1.845-6.71 4.371-8.62 2.303-1.74 3.899-0.38 5.571 1.2l8 2 5-2c-0.983-6.19 1.282-6.98 3.007-12.26 0.933-2.86-0.741-5.81-0.053-8.74 1.103-4.7 4.774-8.79 6.991-13 1.612-3.06 1.555-8.83 5.203-10.21 6.92-2.63 15.931 8.62 23.245 2.22 5.123-4.48-1.965-14.36 5.607-19.01v-2c-3.729-2.84-4.849-5.35-5-10 14.614-1.62 2.996-14.26 8.072-21.89 4.57-6.87 11.32 1.18 16.142-3.14 3.199-2.86-3.664-11.68-3.061-15.97 1.079-7.66 24.588-14 6.847-22l4-10 13 4c0-13.83 1.694-19.93 17-18l-2-5 8-1c-1.297-6.83-3.524-17.82 0.916-24.14 2.516-3.58 8.863-2.18 9.93-6.97 0.895-4.02 1.858-10.81 0.837-14.85-0.675-2.67-4.179-5.13-3.338-8.02 1.668-5.74 9.842-4.54 11.655-11.02l20 7v-3l22-5c-3.969-8.02-10.441-14.25-11.761-24-0.802-5.93 4.008-10.83 2.077-16.83-2.392-7.43-13.994-20.18-1.316-24.17v-6l-4 2-4-4-1 6-18-5.29-11.772 2.22-3.926-9.93-6.302-23c2.749-0.66 6.339-0.58 8.79-2.03 12.777-7.55-1.041-22.5-7.374-28.37-2.652-2.45-7.195-1.06-10.416-2.47-12.284-5.38-35.495-17.47-48.566-7.16-3.847 3.04-0.521 14.78-2.434 20.03-5.517-3.92-7.241-0.33-12.985-0.59-7.159-0.32-12.538-6.49-15.015 4.59l-12-3c-0.802 7.27-11.189 4.88-15.485 1.4-2.956-2.4-4.273-6.46-7.689-8.37-3.577-2.01-8.076 0.03-11.602-2.06-6.711-3.97-13.224-17.58-14.224-24.97l-20-3v-3l-8-2 6.247-16-3.247-14c-7.295-1.1-11.659-6.15-18-9.39-3.168-1.62-6.913-1.64-9.675-4.04-3.761-3.271-6.677-10.852-12.325-11.314-4.257-0.348-8.9 5.199-10.258 8.7439-1.464 3.82-0.506 7.44-3.021 11-7.725 10.95-20.225 16.4-21.721 31l-18-10 6-14-11 1 5-18c-12.347 1.2-18.103-6.2689-29-8.9999l1-6c-2.135 0-12.833-1.247-11.539 2.939 1.077 3.487 4.354 3.934 4.539 8.061z" fill="currentColor" stroke="#000" stroke-linejoin="round" stroke-width="2"/>
 <path id="swietokrzyskie" d="m1274.9 1170c-3.82 5.41-9.74 4.49-13.31 8.6-3.34 3.86 2.09 11.27 4.31 14.4l-3 1 2 8-11.14-3.54-16.86 0.54 6 10-9 8h-1c-6.26-4.36-13.6 2.55-20 3.67-7.58 1.33-17.97-4.76-24.81-0.49-4.71 2.93 1.77 6.86 0.59 10.73-1.16 3.82-5.98 5.39-7 9.26-1.55 5.88 1.8 13.21 0.22 19.83l14 1c-2.35 7.96-1.7 15.9-4.3 24-0.8 2.47-0.12 6.48-2.3 8.29-7.92 6.58-15.38-11.87-18.63-14.72-3.77-3.31-8.32-3.54-11.77-7.57h-1l-7.66 21-0.47 16.83-16.87 23.17c9.9399 0.75 13.79 8.3 13 17l-9-3-1 12c-7.3599 3.96-7.7999 7.72-17 7l4.71 8.09-0.62 7.17 10.91 1.25 21 4.49c-0.22 5.09-4.95 5.85-6.03 10.17-1.73 6.95 10.91 5.57 14.03 3.83 0.37 4.92-0.39 11.03-5.13 13.82-2.53 1.49-5.98 1.04-7.86 3.61-4.65 6.38-4.49 12.22-13.01 15.57 1.6 5.1 17.52 13.25 22.91 12.55 4.47-0.58 6.15-5.97 11.09-5.96 4.54 0.01 18 2.64 21.79 4.73 3.72 2.05 4.53 5.82 9.23 6.49 6.1 0.87 11.37-2.77 16.98-2.28 4.59 0.39 12.83 5.32 16.81 7.93 4.78 3.13 1.2 8.22 3.23 12.54 4.63 9.83 24.46 24.24 3.96 29v8c10.79 3.75 16.16 7.98 11 19l4 8 8 2v2l-7 5 8 1c2.86 17.87 22.72 1.8 31 0.04 4.08-0.87 7.58 2.37 11.58 0.54 5.49-2.51 11.65-7.37 17.42-8.77 4.7-1.15 8.28 1.76 12.98-1.04 6.16-3.66 7.14-12.67 14.02-15.16 3.62-1.31 7.39 0.81 11-0.39 3.73-1.24 6.19-4.66 10-5.82 9.9-3.01 20.9-3.18 31-5.27 11.77-2.44 19.95-12.81 32-8.13 11.52-19.27 32.92-27.83 49.9-40.9 5.23-4.04 5.51-11.46 11.14-15.03 9.03-5.71 19.62-6.74 27.92-14.28 10.39-9.45 11.31-26.39 18.06-37.69 4.27-7.13 20.72 4.91 16.98-10.1 9.45-3.67 7.42-20.51 9.63-29 2.61-10.03 2.51-21.06-1.37-30.91-1.31-3.33-4.16-5.44-4.92-9.09-2.06-10.05-0.97-20.88-2.55-31-0.75-4.78-4.89-8.27-5.41-13-0.67-6.19 1.68-10.51-0.38-17-2.85 1.06-9.78 6.73-4 8-8 8.97-16.31-3.17-24.21-6.39-3.12-1.27-7.42-0.86-10.79-1.61v5c-7.39 0.93-27.1-0.58-23 9h-4c-0.23 7.46-6.25 8.36-12 5.48-9.74-4.87-13.31-8.6-18-18.48-9.64 0-19.37-0.38-29 0.04-3.84 0.17-8.32 1.8-11.73-0.74-3.6-2.69-0.72-6.52-1.6-10.09-1.36-5.53-8.6-9.98-13.67-11.21 2.31-7.22 10.12-15.53-2-18 0 11.72-2.38 15.36-13 20-0.21-6.44-5.22-10.67-12-9.57-4.21 0.69-6.46 4.09-10.13 5.73-5.46 2.44-13.03 2.49-18.87 1.84 1.79-12.03-10.14-1.23-12.35-2.92-2.85-2.18 1.37-8.15 0.62-11.08-1.75-6.81-10.86-8.92-13.27-16l-7 3c-6.26-2.65-9.41-1.3-15 2l-9-21c-4.35-1.42-3.68-4.04 0-6-1.15-6.91-12.13-6.79-18-8z" fill="currentColor" stroke="#000" stroke-linejoin="round" stroke-width="2"/>
 <path id="opolskie" d="m695.92 1214l-1 5c-3.453 0.3-10.122 0.9-11.248 5.04-0.83 3.05 3.211 5.28 3.93 8.05 0.934 3.6-0.067 11.98-1.3 15.44-1.563 4.39-7.021 3.09-9.549 6.07-5.387 6.36-2.161 18.41-0.833 25.4h-8l2 5c-15.897 1.78-17 2.36-17 19l-13-4-4 7v1c6.833 6.37 5.19 7.64 4 16-18.252 2.46-6.378 13.46-7 25-5.04-0.01-13.154-3.46-16.953 0.8-6.738 7.57 7.003 19.31-8.047 23.2 0.158 4.85 1.287 7.34 6 9l-8.152 22.01-23.825-1.41-13.67 34.86-5.353 10.54c-6.769-9.29-23.267 0.59-17.338 9.68 10.057 15.4 32.953 20.87 48.233 27.88 5.865 2.7 7.223 11.74 12.198 15.91 6.103 5.11 13.506 2.96 19.763 6.71 6.827 4.08-0.562 14.03 4.728 17.73 4.091 2.87 6.764-9.63 11.948-9.32 6.552 0.38 2.761 9.66 4.16 12.96 2.095 4.94 5.827-1.3 6.308-3.55 8.576 0 17.24-0.78 25.576-0.78 3.375 0 5.949 1.88 9.424 0.75 6.34-2.07 14.82-14.75 20.996-12.7 2.084 0.7 4.666 2.63 5.127 4.9 0.572 2.83-1.771 5.97-2 8.83-0.605 7.52 3.192 15.16-1.696 22-4.083 5.72-9.51 9.45-16.427 10.56-4.091 0.66-11.473-0.95-14.292 2.87-3.25 4.41 3.466 10.62 6.01 13.57 2.057 2.38 4.105 4.73 6.282 7h1c5.268-4.37 11.378-1.96 15.593 3.3 2.787 3.48 1.935 9.53 3.745 13.7 2.59 5.97 7.206 6.74 10.96 11.27 3.03 3.66 3.493 7.73 7.721 10.62 14.055 9.61 15.832-2.55 26.996-7.03 5.044-2.02 11.321 4.3 15.456 0.53 5.957-5.42-6.13-7.84-5.094-13.3 0.667-3.51 5.212-4.44 7.108-7.23 3.401-5.02 3.557-10.16 4.515-15.86l-1-8-4-2c5.571-5.14 15.944 0.04 17-6l6 1 1-3c3.442 0.67 14.685 1.93 17.239-0.64 2.999-3.02-0.708-7.25 3.838-9.72 6.877-3.74 18.447-5.51 19.923-14.64l5 4h9l2-8c-6.299-2.86-6.136-8.28-9-14 6.789-4.9-4.072-13.09-4-20h3c1.119-8.8-0.845-10.8-4-19 8-1.75 6.573-20.13 6-27l15 1c0.728 3.35 1.597 4.41 5 5-0.078-9.33-10.143-15.62-8.137-24.98 2.032-9.48 17.259-2.97 23.137-3.29 4.461-0.25 8.463-2.5 13-2.73 0.641-5.2-0.947-17.76-5.148-21.2-3.786-3.1-10.06-2.75-12.864-7.02-4.05-6.18-2.65-17.23-8.988-21.78l15.003-16.02-5.978-11.98 2.86-13.98 13.557-12.23 5.729-19.79-1.825-10 6.654-21c16.31-2.65-4.468-21.97-13-22-0.188-3.67-1.401-18.81-7.698-16.34-2.066 0.81-6.565 12.8-7.302 15.34l-6-9-23-6.62-18.985-1.97-10.03-6.07-28.985 1.66c-0.713 9.43-8.529 9.47-16 11.38-11.963 3.06-28.659 7.86-34-7.38h4c0.868-2.31 1.508-4.57 1.997-7 4.395-21.84-27.648-2.07-36.001-2.12-5.329-0.02-9.311-4.9-13.996-6.88z" fill="currentColor" stroke="#000" stroke-linejoin="round" stroke-width="2"/>
 <path id="slaskie" d="m958.92 1242l-6 12h-1c-7.105-8.46-33.66-1.3-41 5 2.206 10.85-6.793 19.94-11.062 30-2.09 4.93 1.072 8.63 1.107 13.42 0.035 4.83-2.489 10.1-4.049 14.58-3.895 11.2-22.775 15.71-18.188 31 1.506 5.02 5.955 8.34 8.192 13l-1 1-2-1-14 15c5.911 3.83 5.057 15.66 8.514 21.58 2.418 4.14 9.794 4.29 13.337 7.75 3.406 3.33 1.728 6.49 3.204 10.38 1.351 3.57 3.947 7.32-0.358 10.28-9.194 6.3-26.427-3.23-33.089 3.61-5.837 6 4.699 15.6 6.494 20.42 0.759 2.03 1.119 6.7-2.146 6.78-2.912 0.07-5.5-3.38-8.971-3.57-2.716-0.14-5.31-0.8-7.985-1.23 0.407 7.9 1.537 22.77-6 27l7 8-3 11h-3c-0.705 7.48 10.028 13 4 19 3.096 8.6 7.866 13.99 7 23h-11l-3-4c-3.093 8.63-15.903 12.66-24 15l-1 12h-23l-4 5-5-4-8 2c6.495 10.76 2.972 20.21-1 31 12.703 3.72 7.385 13.41 15.43 20.16 5.447 4.56 10.146-0.52 15.357 1.26 2.947 1 3.98 5.07 5.85 7.26 4.377 5.1 10.065 7.56 12.363 14.32 5.123-0.02 8.343-0.26 11-5l21.895 4.79 10.123 8.63 18.982-5.42-4 15c10.779 7.16 2.497 9.99 3.184 20 0.685 9.96 3.476 21.45 9.168 29.82 3.74 5.49 15.295 13.8 21.648 15.61 5.247 1.49 11.386-0.85 15.436 3.91 3.279 3.86 3.355 10.88 4.368 15.66 1.655 7.81 5.554 15.1 6.87 23 0.701 4.2-0.944 10.01 1.354 13.77 4.266 6.98 15.102 0.14 20.539 4.83 4.812 4.16 5.811 18.46 5.445 24.4-0.277 4.49-1.035 10.63 5.003 11.58 5.134 0.81 9.205-4.15 13.985-4.98 8.59-1.48 19.63 6.74 27.16-2.88 6.16-7.86 4.28-19.52 10.9-26.72 7.58-8.25 18.46-9.68 26.76-17.37 7.46-6.93 16.89-23.09 28.18-22.63l3-7c-6.42-3.02-17.49-3.74-21-10 5.96-2.52 15.88-15.12 10.4-21.68-5.45-6.52-20.15-2.64-27.39-6.35-3.37-1.73-9.36-7.13-10.15-10.98-0.77-3.75 2.86-8.05-0.46-11.39-5.03-5.04-15.47 1.05-21.28-3.2-2.08-1.53-3.24-3.83-2.62-6.4 2.9-11.94 1.51-19.7 1.5-32-8.33 0.73-15.05 7.62-20-2 10.12-2.07 5.61-12.53 8.47-20 2.78-7.26 8.68-9.64 12.5-15.53 3.44-5.28 3.7-13.62 7.04-19.43 3.23-5.62 7.65-5.73 7.99-13.04l16-2c0.59-10.09 9.61-22.25 19-25l-22-16c12.66-4.12 15.12-10.35 24.22-18.69 2.53-2.31 6.97-2.38 8.7-5.53 1.87-3.41-0.68-6.45 2.08-9.78-1.39-5.32-2.29-11.12 4.17-13.62 5.11-1.97 12.7 3.19 18.79 2.28 6.52-0.97 10.1-4.63 16.04-6.23 3.66-0.98 7.34 0.57 11-0.05 2.87-0.49 5.52-3.05 8.4199-2.95 2.7 0.1 4.76 2.29 7.58 2.15 4.1-0.2 7.71-2.48 12-2.58l-1-6 15-2-7-14c-4.36-0.29-7.16-2.11-11-4.01-3.96-1.95-11.95-2.77-14.08-7.16-1.68-3.46 5.53-6.53 7.28-8.88 2.35-3.18 2.28-7.77 5.12-10.52 5.39-5.2 13.73-3.83 11.68-14.43-3.71 0.86-15.73 0.77-13.48-5.91 1.25-3.69 5.3-5.1 6.48-9.09l-19.09-4.54-14.91-0.46c1.31-9.21 0-9.53-3-18 3.64 0.29 8.19 1.92 11.33-0.6 8.1399-6.53 2.12-18.54 15.67-16.4 7.01-20.55-23.28-9.49-30.89-12.6-4.57-1.87-2.94-6.6-5.29-9.89-5.12-7.16-24.9-14.36-28.82-2.51h-6c0-5.72 1.06-12.81-2.09-17.91-2.72-4.4-7.8-6.23-10.11-11.09-2.52-5.32-5.58-17.35-12.8-10h-1c-3.58-7.78-9.05-9.88-7-19-4 0-9.24-0.72-12.56 2.01-2.94 2.41-2.05 6.85-4.42 9.75-5 6.08-14.97 2.11-18.02-3.76-6.3 0.75-22.72-3.39-22-11l-25-19m102 47l1 1-1-1z" fill="currentColor" stroke="#000" stroke-linejoin="round" stroke-width="2"/>
 <path id="podkarpackie" d="m1574.9 1340l-5.42 33-5.58 16c-9.23 2.87-21.49-3.72-19 11l-2 5-16.17 24.32-28.61 14.75-9.32 13.55-22.9 14.02-22 19.36c0.61 3.29 1.88 7.61 0.55 10.86-2.57 6.29-18.15 16.62-6.55 22.14v2l-6 2c8.25 12.28 2.14 18.98 1 32l6 3h-4v2h7l-2 3v1l3 7-6 3c3.63 3.14-1.75 5.91-1.09 9.79 0.58 3.43 5.38 4.25 5.12 8.21-0.26 3.8-4.3 5.38-6.01 8.32-2.64 4.57-1.39 14.22 1.59 18.35 5.26 7.26 25 2.35 25.68 12.33 0.52 7.6-9.14 7.99-14.29 8-1.24 7.95-12.96 9.64-20 10l5.66 12 1.94 9.97 13.4 1.35 8.29 5.65 11.71 3.03 9.46 36-6.9 18 8.61 9.5-1.17 8.5 15 17-8 3v1c3.96 5.03 3.2 13.75 2 20 6.62 2.75 11.62 5.32 19 4.96 9.33-0.45 17.81-5.66 27-6.78 15.49-1.87 33.6 9.8 38 24.82 5.28-1.59 6.15-9.5 12-9.42 3.77 0.05 7.54 3.56 11 4.89 13.52 5.18 16.2 9.92 25.33 20.49 2.67 3.1 6.49 5.31 8.35 9.05 3.43 6.86-0.44 15.62 7.36 20.19 6.74 3.95 17.08 9.06 24.96 9.57 3.74 0.25 8.34-3.17 11.84-1.56 4.38 2.02 0.28 7.72 4.4 10.14 9.13 5.36 15.63-1.46 23.76 0.84 6.64 1.89 6.86 10.3 13.04 12.78 11.7 4.69 25.79 0.5 36.96 4.63 5.84 2.17 7.42 9.4 13.04 11.66 7.77 3.12 17.3-1.8 24.96 0.68 6.53 2.12 11.38 10.42 18.94 9.73 7.4-0.68 2.74-12.39 2.53-16.67-0.57-11.59-13.64-31.58-26.47-30l1-7-9 3c0.17-5.44 5.94-13.62-2-15-0.13-6.62 3.66-11.46 3.96-18 0.76-16.65-3.13-33.86-6.85-50-1.74-7.59-3.61-16.01-7.1-23-2.02-4.03-7.37-8.76-6.88-13.58 0.65-6.36 8.54-12.4 11.97-17.42 6.48-9.49 9.98-21.65 16.74-30.67 2.84-3.79 7.61-5.54 10.53-9.37 10.15-13.33 15.97-30.2 25.22-43.95 14.21-21.13 30.56-41.53 44.56-63.01 2.34-3.6 2.39-8.22 4.79-11.67 2.09-3.02 5.92-4.07 8.24-6.86 9.94-11.92 18.83-25.95 28.47-38.47 4.67-6.06 12.28-12.86 15.09-20 2.59-6.57-3.58-8.88-8.7401-9l-1.06-9.38-19.94-1.62 4-14h-5c-1.22-3.69-3.31-3.88-7-4l-3-11-17 13h-1c-3.2-3.3-10.05-9.15-15-8.55-3.95 0.48-6.68 4.62-8.84 7.55-6.13 8.28-14.85 16.7-19.16 26-5.49-1.84-9.54-0.17-15-0.5-12.69-0.76-24.82-2.66-38-2.5-5.44 0.07-10.6 2.51-16 2.25-4.52-0.23-20.94-3.74-20.84-9.65 0.11-6.63 13.55-4.64 15.84-11.6-12.84 0-27.15-0.25-39 5-6.22-8.33-13.05-15.41-23-17l2-7c3.83-0.01 9.9 0.11 10.23-5.2 0.14-2.35-3.38-5.98-0.61-7.9 2.3-1.6 7.76 1.63 10.38 1.93 8.87 1 12.4-2.79 17-9.83h-9v-2l5-6-9 2c-0.09-4.8 1.74-8.08-3-11v-5c4.05-2.92 2.96-6.92 1-11l-6 3-4-6c-11.5 2.64-14.19-4.26-25-7.36-5.44-1.57-11.86-0.92-16.84-4.08-3.02-1.92-2.73-5.63-4.92-8.22-4.01-4.73-9.8-3.56-15.24-3.34 2.58-9.31 10.98-18.46 12.52-27.98 0.75-4.62-3.6-5.67-6.2-8.41-6.6-6.92-11.34-11.88-22.31-13.27-6.65-0.84-11.71 7.67-17.01 10.82-10.68 6.33-19.24 2.5-29-3.16z" fill="currentColor" stroke="#000" stroke-linejoin="round" stroke-width="2"/>
 <path id="malopolskie" d="m1170.9 1462l-15 2-9 10c-9.2-3.38-22.33-4.04-31.96-0.26-5.96 2.34-9.22 5.23-16.04 6.05-5.57 0.68-10.95-4.4-16-2.94-6.19 1.78-7.34 9.03-2 12.15v1c-5.34 2.15-2.13 5.85-4.69 9.89-3.28 5.18-11.12 3.54-10.31 11.11l-21 13 22 16c-3.39 1.07-7.98 1.85-10.57 4.43-9.97 9.99-6.9 25.53-25.43 23.57-1.01 6.35-5.69 7.03-8.32 12.11-3 5.8-3.62 13.35-6.71 18.7-3.43 5.96-9.76 8.03-12.5 15.19-1.91 4.99-0.53 10-1.79 15-0.72 2.85-5.27 5.89-4.76 8.77 1.1 6.22 13.82-3.94 17.05 0.59 2.97 4.16 3.86 17.73 2.6 22.64-1.01 3.96-5.93 8.53-2.79 12.68 4.46 5.89 16.14 0.03 22.07 3.64 5.41 3.28 0.94 8.08 1.6 12.64 0.5 3.49 4.94 7.43 7.72 9.3 7.83 5.26 22.57 0.16 29.11 7.06 6.32 6.68-2.9 19.49-9.28 22.68l21 13c-8.56 5.3 2.65 13.13 4.42 19 2.76 9.12 2.65 19.03 7.57 28 2.65 4.83 7.66 7.94 10.8 12.42 2.93 4.19 3.45 9.59 8.25 12.3 9.17 5.18 23.46-7.59 27.93 4.28 2.79 7.41 0.08 15.86 2.63 23 1.51 4.24 7.57 8.04 6.57 13-1.2 5.97-18.35 15.31-9.85 22.89 14.55 12.98 22.61-5.51 35.68-4.83 12.93 0.67 20.89 11.5 33 14.94 0.34-7.87-0.54-18.99 3.2-26 2.4-4.5 7.16-6.68 9.49-11.04 3.58-6.73 4.99-13.44 13.31-16.26 9.56-3.23 17.96 4.65 27 0.3-1.3-3.45-8.34-13.41-6.18-16.94 1.15-1.87 6.31-1.31 8.18-1.38 8.08-0.29 14.9 1.96 18-7.68l25 14.26 13-8.69 12-1.03 14-5.54c5.75 12.64 13.58 32.98 30 27 3.79 9.74 16.24 10.4 23.61 3.44 3.33-3.14 4.18-8.04 7.6-11.13 3.02-2.72 7.55-2.66 10.35-5.7 5.99-6.52-6.87-12.46-0.21-19.27 9.98-10.2 17.44 5.16 26.65 4.86 5.8-0.19 9.05-8.55 14-11.02 6.73-3.36 18.47 0.3 25 2.82 1.46-5.8 2.71-14.84-2-19v-1l8-3v-1c-6.26-2.84-10.98-8.04-12-15h-3l3-10c-17.91-4.96-4.1-15.01-3.31-26 0.58-8.05-3.56-15.14-6.09-22.09-1.19-3.27 0.44-6.71-1.25-9.91-2.34-4.42-16.55-12.1-21.35-12.85-4.08-0.64-11.06 1.52-14.26-1.75-2.9-2.97-1.41-8.68-2.46-12.4-0.74-2.57-4.18-6.01-3.65-8.68s7.2-3.56 9.37-4.23c5.89-1.81 7.35-5.4 12.15-7.49 4.37-1.91 13.1-0.61 11.36-8.54-1.59-7.28-18.15-4.46-23.4-9.29-4.79-4.4-7.3-13.62-4.08-19.68 1.73-3.26 5.89-5.11 6.39-9.05 0.49-3.92-4.16-4.78-4.83-8.14-0.56-2.8 2.33-6.42 3.41-8.9l-3-3 6-2-4-7 3-1v-1l-8-1 5-3v-1c-2.52-0.4-5.09-0.91-5.15-4.06-0.24-11.23 7.64-18.67-1.85-28.94l6-2c-5.19-8.4-2.01-18.44 8-23l-1-10c-13.62 7.62-31.68 11.94-47.96 15.34-3.41 0.72-5.67 3.64-9.05 4.31-4.31 0.84-8.56-0.66-12.95 0.74-3.51 1.12-5.65 4.34-9.05 5.58-3.85 1.41-8.06-0.88-11.95 0.63-6.99 2.73-8.31 13.05-15.87 16.38-3.41 1.51-6.62-1.2-10.17-0.52-6.51 1.25-11.93 7.39-18.29 9.36-3.87 1.2-7.6-2.11-11.71-0.93-8.65 2.49-12.98 8.84-23 7.88-6.42-0.61-8.96-7.43-16-8.77l7-7-12-11c5.25-8.38 1.44-19.11-10-16l-1-12 10-2c-0.1-11.76-7.95-16.59-13.36-26-1.84-3.2 0.13-6.54-1.26-9.69-1.56-3.52-13.79-9.31-17.38-9.95-6.82-1.23-16.31 2.25-24 1.64-0.49-2.38-0.96-4.47-3.23-5.82-3.07-1.84-6.37-0.19-9.6-0.9-5.28-1.16-15.25-8.51-18.82-0.22-2.88 6.7 4.13 12.67 6.65 17.94z" fill="currentColor" stroke="#000" stroke-linejoin="round" stroke-width="2"/>
 <text id="text9455" x="1120.7891" y="781.2334" fill="#000000" font-family="Arial" font-size="48px" stroke-width="1px" xml:space="preserve"><tspan id="tspan9457" x="1120.7891" y="781.2334"/></text>
 <text id="text2315" x="107.4135" y="428.91248" fill="#000000" font-family="Arial" font-size="56px" stroke-width="1px" xml:space="preserve"><tspan id="tspan2317" x="107.4135" y="428.91248">West Pomerania</tspan></text>
 <text id="text2333" x="658.68701" y="265.51724" fill="#000000" font-family="Arial" font-size="56px" stroke-width="1px" xml:space="preserve"><tspan id="tspan2335" x="658.68701" y="265.51724">Pommerania</tspan></text>
 <text id="text2337" x="1265.2007" y="810.75775" fill="#000000" font-family="Arial" font-size="56px" stroke-width="1px" xml:space="preserve"><tspan id="tspan2339" x="1265.2007" y="810.75775">Masovia</tspan></text>
 <text id="text2341" x="1113.1462" y="1660.156" fill="#000000" font-family="Arial" font-size="56px" stroke-width="1px" xml:space="preserve"><tspan id="tspan2343" x="1050.1462" y="1660.156">Lesser Poland</tspan></text>
 <text id="text2345" x="1334.3851" y="298.26941" fill="#000000" font-family="Arial" font-size="56px" stroke-width="1px" text-align="center" text-anchor="middle" xml:space="preserve"><tspan id="tspan2347" x="1334.3851" y="298.26941">Warmian-</tspan><tspan id="tspan2349" x="1334.3851" y="368.26941">Masurian</tspan></text>
 <text id="text2351" x="971.92029" y="1089.6427" fill="#000000" font-family="Arial" font-size="56px" stroke-width="1px" xml:space="preserve"><tspan id="tspan2353" x="971.92029" y="1089.6427">Łódź</tspan></text>
 <text id="text2355" x="484.22095" y="831.72198" fill="#000000" font-family="Arial" font-size="56px" stroke-width="1px" xml:space="preserve"><tspan id="tspan2357" x="404.22095" y="831.72198">Greater Poland</tspan></text>
 <text id="text2359" x="1595.6141" y="557.38287" fill="#000000" font-family="Arial" font-size="56px" stroke-width="1px" xml:space="preserve"><tspan id="tspan2361" x="1595.6141" y="557.38287">Podlaskie</tspan></text>
 <text id="text2363" x="887.35333" y="1468.7917" fill="#000000" font-family="Arial" font-size="56px" stroke-width="1px" xml:space="preserve"><tspan id="tspan2365" x="887.35333" y="1468.7917">Silesian</tspan></text>
 <text id="text2367" x="649.23669" y="1403.6053" fill="#000000" font-family="Arial" font-size="56px" stroke-width="1px" xml:space="preserve"><tspan id="tspan2369" x="649.23669" y="1403.6053">Opole</tspan></text>
 <text id="text2371" x="235.63036" y="1243.1763" fill="#000000" font-family="Arial" font-size="56px" stroke-width="1px" xml:space="preserve"><tspan id="tspan2373" x="235.63036" y="1243.1763">Lower Silesian</tspan></text>
 <text id="text2375" x="155.41573" y="912.29102" fill="#000000" font-family="Arial" font-size="56px" stroke-width="1px" xml:space="preserve"><tspan id="tspan2377" x="155.41573" y="912.29102">Lubusz</tspan></text>
 <text id="text2379" x="1702.053" y="1198.0554" fill="#000000" font-family="Arial" font-size="56px" stroke-width="1px" xml:space="preserve"><tspan id="tspan2381" x="1702.053" y="1198.0554">Lublin</tspan></text>
 <text id="text2383" x="1198.2052" y="1376.0315" fill="#000000" font-family="Arial" font-size="56px" stroke-width="1px" xml:space="preserve"><tspan id="tspan2385" x="1198.2052" y="1376.0315">Świętokrzyskie</tspan></text>
 <text id="text2387" x="1451.3824" y="1586.5947" fill="#000000" font-family="Arial" font-size="56px" stroke-width="1px" xml:space="preserve"><tspan id="tspan2391" x="1451.3824" y="1586.5947">Subcarpathian</tspan></text>
 <text id="text2395" x="879.85358" y="578.89923" fill="#000000" font-family="Arial" font-size="56px" stroke-width="1px" text-align="center" text-anchor="middle" xml:space="preserve"><tspan id="tspan2397" x="879.85358" y="578.89923">Kuyavian-</tspan><tspan id="tspan2399" x="879.85358" y="648.89923">Pomeranian</tspan></text>
</svg>
